# xmcd
#
# Track frame offsets:
#	183
#	22383
#	38108
#	45043
#
# Disc length: 795 seconds
#
# Revision: 2
# Processed by: cddbd v1.5.2PL0 Copyright (c) Steve Scherf et al.
# Submitted via: audiograbber 1.83.01
#
DISCID=28031904
DTITLE=Millowitsch,Niedecken,Zeltinger&Fööss - Bläck Fööss Band P1990*1970
DYEAR=1900
DGENRE=Folk
TTITLE0=Bläck Fööss Band
TTITLE1=Rievkooche Walzer
TTITLE2=Bläck Fööss Band Reprise
TTITLE3=En unserem Veedel
EXTD=
EXTT0=
EXTT1=
EXTT2=
EXTT3=
PLAYORDER=
